HIERARCHY
ROOT hip
{
  OFFSET 0 0 0
  CHANNELS 6 Xposition Yposition Zposition Zrotation Yrotation Xrotation
  JOINT abdomen
  {
    OFFSET 0 20.6881 -0.73152
    CHANNELS 3 Zrotation Xrotation Yrotation
    JOINT chest
    {
      OFFSET 0 11.7043 -0.48768
      CHANNELS 3 Zrotation Xrotation Yrotation
      JOINT neck
      {
        OFFSET 0 22.1894 -2.19456
        CHANNELS 3 Zrotation Xrotation Yrotation
        JOINT head
        {
          OFFSET -0.24384 7.07133 1.2192
          CHANNELS 3 Zrotation Xrotation Yrotation
          JOINT leftEye
          {
            OFFSET 4.14528 8.04674 8.04672
            CHANNELS 3 Zrotation Xrotation Yrotation
            End Site
            {
              OFFSET 1 0 0
            }
          }
          JOINT rightEye
          {
            OFFSET -3.6576 8.04674 8.04672
            CHANNELS 3 Zrotation Xrotation Yrotation
            End Site
            {
              OFFSET 1 0 0
            }
          }
        }
      }
      JOINT rCollar
      {
        OFFSET -2.68224 19.2634 -4.8768
        CHANNELS 3 Zrotation Xrotation Yrotation
        JOINT rShldr
        {
          OFFSET -8.77824 -1.95073 1.46304
          CHANNELS 3 Zrotation Xrotation Yrotation
          JOINT rForeArm
          {
            OFFSET -28.1742 -1.7115 0.48768
            CHANNELS 3 Zrotation Xrotation Yrotation
            JOINT rHand
            {
              OFFSET -22.5879 0.773209 7.07136
              CHANNELS 3 Zrotation Xrotation Yrotation
              JOINT rThumb1
              {
                OFFSET -1.2192 -0.487915 3.41376
                CHANNELS 3 Zrotation Xrotation Yrotation
                JOINT rThumb2
                {
                  OFFSET -3.37035 -0.52449 3.41376
                  CHANNELS 3 Zrotation Xrotation Yrotation
                  End Site
                  {
                    OFFSET -1.78271 -1.18214 1.43049
                  }
                }
              }
              JOINT rIndex1
              {
                OFFSET -7.75947 0.938293 5.60832
                CHANNELS 3 Zrotation Xrotation Yrotation
                JOINT rIndex2
                {
                  OFFSET -2.54057 -0.884171 1.56538
                  CHANNELS 3 Zrotation Xrotation Yrotation
                  End Site
                  {
                    OFFSET -1.62519 -0.234802 1.16502
                  }
                }
              }
              JOINT rMid1
              {
                OFFSET -8.24714 1.18213 3.41376
                CHANNELS 3 Zrotation Xrotation Yrotation
                JOINT rMid2
                {
                  OFFSET -3.10165 -0.590103 1.0647
                  CHANNELS 3 Zrotation Xrotation Yrotation
                  End Site
                  {
                    OFFSET -2.48547 -0.328903 0.83742
                  }
                }
              }
              JOINT rRing1
              {
                OFFSET -8.82822 0.546677 1.51678
                CHANNELS 3 Zrotation Xrotation Yrotation
                JOINT rRing2
                {
                  OFFSET -2.60934 -0.819778 -0.0198488
                  CHANNELS 3 Zrotation Xrotation Yrotation
                  End Site
                  {
                    OFFSET -2.33842 -0.294052 0.168128
                  }
                }
              }
              JOINT rPinky1
              {
                OFFSET -8.27202 -0.0477905 -0.4584
                CHANNELS 3 Zrotation Xrotation Yrotation
                JOINT rPinky2
                {
                  OFFSET -1.82734 -0.647385 -0.700984
                  CHANNELS 3 Zrotation Xrotation Yrotation
                  End Site
                  {
                    OFFSET -1.69225 -0.51767 -0.607171
                  }
                }
              }
            }
          }
        }
      }
      JOINT lCollar
      {
        OFFSET 2.68224 19.2634 -4.8768
        CHANNELS 3 Zrotation Xrotation Yrotation
        JOINT lShldr
        {
          OFFSET 8.77824 -1.95073 1.46304
          CHANNELS 3 Zrotation Xrotation Yrotation
          JOINT lForeArm
          {
            OFFSET 28.1742 -1.7115 0.48768
            CHANNELS 3 Zrotation Xrotation Yrotation
            JOINT lHand
            {
              OFFSET 22.5879 0.773209 7.07136
              CHANNELS 3 Zrotation Xrotation Yrotation
              JOINT lThumb1
              {
                OFFSET 1.2192 -0.487915 3.41376
                CHANNELS 3 Zrotation Xrotation Yrotation
                JOINT lThumb2
                {
                  OFFSET 3.37035 -0.52449 3.41376
                  CHANNELS 3 Zrotation Xrotation Yrotation
                  End Site
                  {
                    OFFSET 1.78271 -1.18214 1.43049
                  }
                }
              }
              JOINT lIndex1
              {
                OFFSET 7.75947 0.938293 5.60832
                CHANNELS 3 Zrotation Xrotation Yrotation
                JOINT lIndex2
                {
                  OFFSET 2.54057 -0.884171 1.56538
                  CHANNELS 3 Zrotation Xrotation Yrotation
                  End Site
                  {
                    OFFSET 1.62519 -0.234802 1.16502
                  }
                }
              }
              JOINT lMid1
              {
                OFFSET 8.24714 1.18213 3.41376
                CHANNELS 3 Zrotation Xrotation Yrotation
                JOINT lMid2
                {
                  OFFSET 3.10165 -0.590103 1.0647
                  CHANNELS 3 Zrotation Xrotation Yrotation
                  End Site
                  {
                    OFFSET 2.48547 -0.328903 0.83742
                  }
                }
              }
              JOINT lRing1
              {
                OFFSET 8.82822 0.546677 1.51678
                CHANNELS 3 Zrotation Xrotation Yrotation
                JOINT lRing2
                {
                  OFFSET 2.60934 -0.819778 -0.0198488
                  CHANNELS 3 Zrotation Xrotation Yrotation
                  End Site
                  {
                    OFFSET 2.33842 -0.294052 0.168128
                  }
                }
              }
              JOINT lPinky1
              {
                OFFSET 8.27202 -0.0477905 -0.4584
                CHANNELS 3 Zrotation Xrotation Yrotation
                JOINT lPinky2
                {
                  OFFSET 1.82734 -0.647385 -0.700984
                  CHANNELS 3 Zrotation Xrotation Yrotation
                  End Site
                  {
                    OFFSET 1.69225 -0.51767 -0.607171
                  }
                }
              }
            }
          }
        }
      }
    }
  }
  JOINT rButtock
  {
    OFFSET -8.77824 4.35084 1.2192
    CHANNELS 3 Zrotation Xrotation Yrotation
    JOINT rThigh
    {
      OFFSET 0 -1.70687 -2.19456
      CHANNELS 3 Zrotation Xrotation Yrotation
      JOINT rShin
      {
        OFFSET 0 -36.8199 0.73152
        CHANNELS 3 Zrotation Xrotation Yrotation
        JOINT rFoot
        {
          OFFSET 0.73152 -45.1104 -5.12064
          CHANNELS 3 Zrotation Xrotation Yrotation
          End Site
          {
            OFFSET -1.1221 -3.69964 12.103
          }
        }
      }
    }
  }
  JOINT lButtock
  {
    OFFSET 8.77824 4.35084 1.2192
    CHANNELS 3 Zrotation Xrotation Yrotation
    JOINT lThigh
    {
      OFFSET 0 -1.70687 -2.19456
      CHANNELS 3 Zrotation Xrotation Yrotation
      JOINT lShin
      {
        OFFSET 0 -36.8199 0.73152
        CHANNELS 3 Zrotation Xrotation Yrotation
        JOINT lFoot
        {
          OFFSET -0.73152 -45.1104 -5.12064
          CHANNELS 3 Zrotation Xrotation Yrotation
          End Site
          {
            OFFSET 1.1221 -3.69964 12.103
          }
        }
      }
    }
  }
}
MOTION
Frames:	9
Frame Time:	0.00833333
0.0 0.0 0.0 0.0 0.0 0.0 0.0 0.0 0.0 0.0 0.0 0.0 0.0 0.0 0.0 0.0 0.0 0.0 0.0 0.0 0.0 0.0 0.0 0.0 0.0 0.0 0.0 0.0 0.0 0.0 0.0 0.0 0.0 0.0 0.0 0.0 0.0 0.0 0.0 0.0 0.0 0.0 0.0 0.0 0.0 0.0 0.0 0.0 0.0 0.0 0.0 0.0 0.0 0.0 0.0 0.0 0.0 0.0 0.0 0.0 0.0 0.0 0.0 0.0 0.0 0.0 0.0 0.0 0.0 0.0 0.0 0.0 0.0 0.0 0.0 0.0 0.0 0.0 0.0 0.0 0.0 0.0 0.0 0.0 0.0 0.0 0.0 0.0 0.0 0.0 0.0 0.0 0.0 0.0 0.0 0.0 0.0 0.0 0.0 0.0 0.0 0.0 0.0 0.0 0.0 0.0 0.0 0.0 0.0 0.0 0.0 0.0 0.0 0.0 0.0 0.0 0.0 0.0 0.0 0.0 0.0 0.0 0.0 0.0 0.0 0.0 0.0 0.0 0.0 0.0 0.0 0.0
0.1437 59.6499 -0.1089 -167.862625 -62.847469 179.692542 -1.057782 18.859251 3.26921 8.262183 -11.350916 -5.232883 -4.459203 41.457327 -162.621056 18.876102 58.768035 101.726384 0.001219 0.0 8.3e-05 -0.004508 0.0 -2.9e-05 -40.040613 -86.055953 -61.572155 -2.142429 0.174494 -34.903834 -167.89106 -82.123279 47.502818 170.65404 -21.560475 142.946396 71.830998 -48.263783 25.791871 -19.877066 -13.214292 -19.128712 -140.762911 1.380465 116.229048 -32.263279 48.760387 18.0091 -160.672397 -6.668123 143.244639 3.16059 0.179256 0.385972 -145.110491 -0.627628 -178.932155 -66.844435 87.684333 80.165666 -29.900702 -41.144174 -28.888043 38.643 80.528192 -1.450676 -3.447093 -62.740806 13.274365 162.272513 35.885985 129.268321 -116.423045 66.556852 -103.355354 164.724092 24.449277 -136.758003 179.373585 -16.877119 -89.358988 171.097118 -7.624908 -94.226111 138.093664 5.494881 -114.615427 -176.919659 -46.612608 -112.712241 158.522394 -0.192065 -142.145104 163.268237 -4.789795 -142.967125 -0.000403 0.022735 -0.006371 148.21826 -76.780536 171.086853 156.863045 55.541266 150.3312 85.623701 -52.317402 84.286286 -0.008778 0.00137 -0.008779 -52.313277 -48.224651 -44.696735 23.433026 76.010603 71.288189 -25.392666 -54.048639 -131.549114 -5.9e-05 -0.001035 7.6e-05 41.51156 -40.335052 53.822266 80.544461 64.334961 57.326997 0.132246 67.010367 -116.196351
0.1739 59.9306 -0.4225 -169.666521 -60.651856 -178.653193 -0.951669 18.354439 0.262061 8.531113 -10.769602 -2.177991 5.32939 24.876529 58.360791 -40.929906 -17.843877 -116.037733 0.001997 -0.0 -0.000385 -0.003728 0.0 -0.00049 2.821756 -21.775497 -4.329772 -117.359862 -30.602117 -159.81331 -169.334918 26.036856 -78.389326 -6.429177 14.563777 -0.333409 4.416867 -4.400624 -0.513031 -14.020916 14.176632 9.476076 -140.684558 1.506077 116.183562 -63.533521 56.811589 45.596704 -0.970078 2.779476 0.553277 -7.295124 26.198797 6.028959 -145.120132 0.267733 -179.212438 -150.046848 -36.390628 -172.680753 -144.783653 10.84673 -141.475451 1.36367 -2.381949 -2.752813 -3.28477 -26.942043 5.275318 -145.026255 78.719502 75.520048 141.15676 21.630559 -21.670687 -174.250707 -36.889542 -143.675222 172.746232 -10.423647 -89.928644 -178.728735 -17.376794 -95.351054 145.33876 -6.26496 -118.676657 -3.327558 13.126727 7.126899 -2.101189 -6.305356 1.079877 -9.81915 -20.366069 1.551242 -0.000207 0.063738 -0.019849 156.457971 -43.521309 -177.137194 8.191311 -17.575807 7.729565 149.197928 19.217309 145.313961 -179.974432 75.750525 -0.021037 148.517722 11.574257 -108.140789 -76.589946 -32.328924 2.97262 138.866203 -22.519692 -94.494047 0.00405 -0.000283 0.002025 41.829604 -38.429566 -31.144854 -77.993814 19.790331 -2.969637 13.853138 46.751122 95.07496
0.1724 60.1828 -0.6925 -170.837958 -58.151857 -177.687485 -1.002864 17.81332 -5.872722 8.995538 -9.711432 4.137606 -13.462099 27.250912 -51.785358 46.76747 -14.289018 9.241727 -0.001595 -0.0 0.000783 -0.001595 -0.0 0.000783 3.268413 -26.7558 -5.242411 40.078454 -6.562895 -20.27943 -99.139546 -35.873958 82.68912 90.577557 -72.504845 74.133981 11.110637 -11.091876 -0.639366 -155.451452 -74.873941 128.905692 159.64013 -69.973153 102.393824 123.955246 -68.745334 63.577107 -165.271366 -21.322442 144.896822 179.85809 -48.669036 140.911433 -145.118396 0.185606 -179.186323 12.120025 40.325264 -4.412946 -0.319202 -0.822749 -0.295912 -147.13228 11.067532 -143.556682 -3.2068 -26.010401 5.104773 100.618303 -16.93758 165.694186 166.349765 -18.694467 74.533512 5.927552 -12.110335 3.836404 169.148706 -6.830373 -89.917286 71.417929 1.372344 -22.530845 -88.792196 -75.498896 -40.048423 2.534307 28.316219 -2.780166 160.098987 -4.901333 -142.967767 25.587624 49.016826 -21.195242 75.672882 -72.117564 92.828476 149.802094 -27.270856 179.793485 110.052447 -41.781275 108.127166 -17.273433 43.703097 -6.862268 179.999451 75.749659 0.000423 148.556252 13.24011 -60.81982 -68.470332 14.938364 46.823135 102.827516 11.273941 -28.878367 179.999959 75.749659 2.8e-05 -144.800863 25.523696 -133.672428 -85.771308 -29.816593 -98.875458 150.591273 27.268497 135.659764
0.1656 60.38249999999999 -1.005 -172.170845 -55.56456 -176.569072 -1.64909 17.338076 0.425962 7.897819 -10.554905 -1.94393 -7.022068 40.606501 -148.600223 33.100867 53.321957 84.648283 0.00151 0.0 0.003574 0.00151 0.0 0.003574 -151.97251 14.763786 157.370488 -66.90276 44.78392 45.280656 -110.260147 60.553838 -136.076552 0.680141 -8.230421 -0.748144 1.601234 -1.586061 -0.225336 19.702832 -33.222795 -15.38719 -0.326946 0.530115 0.185972 -65.76874 48.402623 50.660046 -89.835165 60.702426 81.262967 -83.139257 64.153322 75.308088 -69.013066 72.941461 86.719202 -77.235854 -82.566966 -94.362754 11.409204 38.078035 9.690163 -5.792762 -17.4607 -6.929353 80.166051 68.372639 -83.260679 105.028745 14.687256 -93.152123 -161.085126 -8.706293 77.905299 18.066894 22.661684 -2.254782 103.19943 36.331585 -60.111733 -143.264554 -47.979057 -66.023191 162.636696 -37.465569 -122.649064 164.628156 -26.28045 -118.874084 167.374882 -28.008422 -145.269785 -3.359066 -0.630258 -0.26284 145.120766 1.975236 179.749246 73.814502 -78.00766 95.176668 154.758923 47.459905 149.265908 147.885438 10.866274 141.700178 179.928625 75.750825 0.055013 147.584328 14.061334 8.077479 17.379338 67.734446 59.635573 -2.612819 22.627044 -62.356987 179.99701 75.749739 0.003085 -144.982672 29.755227 -18.520267 9.121355 78.320455 86.985746 -162.554272 11.021755 57.924585
0.1737 60.5172 -1.3535 -173.572136 -52.89028 -175.459762 -2.066658 12.121421 180.0 -7.71724 5.755316 177.923117 7.510086 35.16847 124.260633 -46.003695 32.402905 -158.643516 -0.001736 0.0 -0.001604 -0.001406 0.0 -0.001539 -155.445809 -3.134721 161.757111 -38.330249 16.213078 15.666467 124.174493 -16.20767 -61.845547 -119.750321 70.519597 98.083889 169.909388 -26.367241 86.897179 -41.316685 -18.042025 -2.513997 -145.522309 -6.584723 118.766766 7.67759 4.967903 -8.901229 -8.416125 20.880625 5.64456 4.345606 -3.116891 -0.396945 -145.120542 0.185358 -179.186809 11.195625 13.761009 -7.37718 17.314632 60.660408 12.799214 -170.148279 72.830617 -146.096471 153.049554 10.023411 -158.668109 60.262863 22.725837 -13.33819 174.037255 5.848076 77.86672 8.52068 -5.082867 3.257165 95.360716 37.750062 -54.682646 153.967051 -29.532412 -79.218643 124.522167 22.156959 -104.961931 -1.344688 10.938611 5.905036 108.908773 57.216503 -99.527849 -3.063703 1.057637 -0.346432 -0.004891 1.854537 -0.581734 -7.089354 27.813007 -4.279034 26.5623 -38.861498 25.605455 150.260285 24.137342 145.986003 0.008802 0.0001 0.004401 -51.216462 -47.256397 -0.0 67.568429 36.620762 42.230038 -153.989334 25.857241 114.012172 -179.995265 75.74952 -0.004885 -143.899427 31.195635 -90.894266 -71.069499 9.147889 41.188659 160.448449 12.750862 -69.468386
0.1832 60.6557 -1.7781000000000002 -174.8694 -50.134995 -174.466903 -2.610051 16.592468 0.641519 7.611069 -10.541556 -2.165923 -11.664618 23.528061 -33.577666 36.99228 -25.402296 -2.886578 0.002461 0.0 0.00167 0.00281 0.0 0.001635 -152.942497 10.523424 158.535887 58.211805 -70.192516 85.66833 26.691037 71.957546 -160.216108 174.986533 -9.805472 144.012957 1.590013 -1.575958 -0.22249 -16.819029 16.355142 13.704576 -162.919013 -37.929802 122.627913 2.554207 19.965668 -5.053058 21.552896 -58.000443 0.006516 -164.177843 -6.967127 143.464045 -145.118722 0.267509 -179.213009 11.905893 29.602452 -5.640551 -144.259152 9.237957 -141.009582 16.260952 41.605069 5.890895 -4.248946 -45.272822 8.757118 -58.979794 -0.716221 31.129217 113.290773 -55.814139 -95.29426 -176.161235 -34.127429 -144.338087 166.631557 -4.304859 -89.771081 71.11032 0.250154 -23.293219 35.099038 35.160813 -26.611714 161.599314 -7.546545 -111.357033 36.038148 51.722111 -29.833792 88.569787 63.983037 -80.473436 72.350934 72.97488 -90.218049 -2.667197 -44.13072 11.613439 7.901882 -17.073123 7.45577 23.994613 -41.366534 25.030251 -0.000422 0.000419 -0.000211 -49.80192 -48.31066 -57.74726 -15.27424 64.481683 85.820774 -109.523651 39.36052 46.093061 -179.995403 75.751033 -0.003543 -144.527813 34.954672 -21.592053 -24.714155 66.582174 -14.180159 167.611327 -5.862277 -73.146067
0.20240000000000002 60.8108 -2.3584 -175.983669 -47.311397 -173.659724 -3.179589 11.665844 -180.0 -7.543266 5.687596 177.541155 1.297723 21.140217 38.97851 -26.94225 -29.714846 -89.860885 0.002539 0.0 0.004552 -0.003248 0.0 -0.001115 -44.926565 -86.287141 -66.535045 10.943381 13.866508 -32.061014 -23.919718 56.938459 126.339642 -3.795895 5.59462 -0.901554 1.600387 -1.586457 -0.224415 16.749921 -27.556855 -13.666041 150.93839 -72.374118 95.250326 -46.321747 53.58931 36.755304 -57.867355 59.218726 50.524839 3.618791 -0.579927 0.038561 -145.119725 0.185837 -179.185841 -151.051276 -32.037556 -173.804651 3.762342 10.729372 3.418556 1.433723 -2.297741 -0.727547 155.417822 -2.951448 -161.71836 133.863236 -86.918027 85.076166 53.876757 -79.664356 -47.107852 6.264167 -15.545572 4.39951 173.770538 -11.439969 -89.891645 145.43429 8.036747 -75.181937 166.82059 -43.973773 -122.063077 154.726303 -7.402555 -118.915367 153.320599 13.629016 -138.862644 -2.975587 0.930587 -0.469461 145.119523 0.184941 179.187518 -11.432532 17.99557 6.906504 162.362742 72.064142 150.902222 76.832208 -53.479517 75.560934 -179.999255 75.7506 -0.0 148.707705 12.983911 7.108444 23.214756 72.271896 131.669127 19.763084 16.424287 -144.43347 179.998809 75.750191 0.001229 -145.86871 35.994501 130.925949 66.743593 -46.600106 160.678726 -178.544278 21.043563 -120.15101
0.2868 61.1012 -2.9485 -176.808033 -44.649326 -173.276881 -2.939525 11.546688 -165.611963 -5.086825 7.163191 163.087159 -14.377366 25.35596 -51.248157 44.542639 -12.307803 15.546358 -0.001452 0.0 -0.001164 -0.001452 0.0 -0.001164 -155.416663 -2.951305 161.719081 -37.402972 23.81065 13.282659 115.13975 -20.592331 -60.703889 -143.062256 63.425229 119.60474 -166.631893 -4.304706 89.771139 168.344049 -26.47481 94.653476 0.530765 -0.867632 -0.297042 -151.043179 1.247624 109.114567 -160.673814 -6.667714 143.245266 -163.024434 -3.985988 142.881011 -71.925382 72.974869 89.771407 -95.301893 82.839099 104.348938 -1.204096 -3.047542 -1.115473 36.662311 80.991583 -0.067177 152.128593 14.113216 -157.556857 174.525628 66.475539 -120.760287 114.248421 82.894664 138.291313 7.739134 -11.324423 4.060653 175.329992 -12.974916 -89.797708 127.375908 14.401482 -62.310367 14.057428 19.016874 -9.431176 -2.956447 8.798833 -0.986281 -7.903224 -24.807752 3.013511 164.077903 -6.966338 -143.547962 -0.000744 0.063755 -0.0206 140.36808 60.456785 -154.516212 79.224525 -51.407303 77.662171 2.748551 -14.249779 6.212131 -0.002781 -0.001521 -0.002086 -50.488516 -49.133454 -0.0 60.896357 45.428938 -171.358134 -6.736126 62.274838 95.527694 -179.997843 75.749754 -0.001775 -143.716057 40.353399 -24.849218 -33.263466 64.318915 -33.615334 165.861194 52.843507 -83.524661
